<svg height="1134" width="720" xmlns="http://www.w3.org/2000/svg">
<rect height="1134" fill="#555" width="720"></rect>
<text fill="#7f7" font-family="Courier New" font-size="12" xml:space="preserve">
<tspan x="10" y="26">8 megabytes installed</tspan>
<tspan x="10" y="42"></tspan>
<tspan x="10" y="58">node_modules</tspan>
<tspan x="10" y="74">└─┬ gcr@3.0.0 </tspan>
<tspan x="10" y="90">  ├── argsplit@1.0.5 </tspan>
<tspan x="10" y="106">  ├── help@2.0.0 </tspan>
<tspan x="10" y="122">  ├─┬ inquirer@0.4.1 </tspan>
<tspan x="10" y="138">  │ ├── async@0.2.10 </tspan>
<tspan x="10" y="154">  │ ├─┬ cli-color@0.2.3 </tspan>
<tspan x="10" y="170">  │ │ ├── es5-ext@0.9.2 </tspan>
<tspan x="10" y="186">  │ │ └─┬ memoizee@0.2.6 </tspan>
<tspan x="10" y="202">  │ │   ├── event-emitter@0.2.2 </tspan>
<tspan x="10" y="218">  │ │   └── next-tick@0.1.0 </tspan>
<tspan x="10" y="234">  │ ├── lodash@2.4.2 </tspan>
<tspan x="10" y="250">  │ ├── mute-stream@0.0.4 </tspan>
<tspan x="10" y="266">  │ ├─┬ readline2@0.1.1 </tspan>
<tspan x="10" y="282">  │ │ └─┬ strip-ansi@2.0.1 </tspan>
<tspan x="10" y="298">  │ │   └── ansi-regex@1.1.1 </tspan>
<tspan x="10" y="314">  │ └── through@2.3.8 </tspan>
<tspan x="10" y="330">  ├── mkdirp@0.3.5 </tspan>
<tspan x="10" y="346">  ├─┬ nconf@0.6.9 </tspan>
<tspan x="10" y="362">  │ ├── async@0.2.9 </tspan>
<tspan x="10" y="378">  │ ├── ini@1.3.4 </tspan>
<tspan x="10" y="394">  │ └─┬ optimist@0.6.0 </tspan>
<tspan x="10" y="410">  │   ├── minimist@0.0.10 </tspan>
<tspan x="10" y="426">  │   └── wordwrap@0.0.3 </tspan>
<tspan x="10" y="442">  ├─┬ nopt@2.2.1 </tspan>
<tspan x="10" y="458">  │ └── abbrev@1.1.0 </tspan>
<tspan x="10" y="474">  ├─┬ npmlog@0.0.6 </tspan>
<tspan x="10" y="490">  │ └── ansi@0.2.1 </tspan>
<tspan x="10" y="506">  ├── os-homedir@1.0.2 </tspan>
<tspan x="10" y="522">  ├─┬ request@2.53.0 </tspan>
<tspan x="10" y="538">  │ ├── aws-sign2@0.5.0 </tspan>
<tspan x="10" y="554">  │ ├─┬ bl@0.9.5 </tspan>
<tspan x="10" y="570">  │ │ └─┬ readable-stream@1.0.34 </tspan>
<tspan x="10" y="586">  │ │   ├── core-util-is@1.0.2 </tspan>
<tspan x="10" y="602">  │ │   ├── inherits@2.0.3 </tspan>
<tspan x="10" y="618">  │ │   ├── isarray@0.0.1 </tspan>
<tspan x="10" y="634">  │ │   └── string_decoder@0.10.31 </tspan>
<tspan x="10" y="650">  │ ├── caseless@0.9.0 </tspan>
<tspan x="10" y="666">  │ ├─┬ combined-stream@0.0.7 </tspan>
<tspan x="10" y="682">  │ │ └── delayed-stream@0.0.5 </tspan>
<tspan x="10" y="698">  │ ├── forever-agent@0.5.2 </tspan>
<tspan x="10" y="714">  │ ├─┬ form-data@0.2.0 </tspan>
<tspan x="10" y="730">  │ │ └── async@0.9.2 </tspan>
<tspan x="10" y="746">  │ ├─┬ hawk@2.3.1 </tspan>
<tspan x="10" y="762">  │ │ ├── boom@2.10.1 </tspan>
<tspan x="10" y="778">  │ │ ├── cryptiles@2.0.5 </tspan>
<tspan x="10" y="794">  │ │ ├── hoek@2.16.3 </tspan>
<tspan x="10" y="810">  │ │ └── sntp@1.0.9 </tspan>
<tspan x="10" y="826">  │ ├─┬ http-signature@0.10.1 </tspan>
<tspan x="10" y="842">  │ │ ├── asn1@0.1.11 </tspan>
<tspan x="10" y="858">  │ │ ├── assert-plus@0.1.5 </tspan>
<tspan x="10" y="874">  │ │ └── ctype@0.5.3 </tspan>
<tspan x="10" y="890">  │ ├── isstream@0.1.2 </tspan>
<tspan x="10" y="906">  │ ├── json-stringify-safe@5.0.1 </tspan>
<tspan x="10" y="922">  │ ├─┬ mime-types@2.0.14 </tspan>
<tspan x="10" y="938">  │ │ └── mime-db@1.12.0 </tspan>
<tspan x="10" y="954">  │ ├── node-uuid@1.4.8 </tspan>
<tspan x="10" y="970">  │ ├── oauth-sign@0.6.0 </tspan>
<tspan x="10" y="986">  │ ├── qs@2.3.3 </tspan>
<tspan x="10" y="1002">  │ ├── stringstream@0.0.5 </tspan>
<tspan x="10" y="1018">  │ ├─┬ tough-cookie@2.3.2 </tspan>
<tspan x="10" y="1034">  │ │ └── punycode@1.4.1 </tspan>
<tspan x="10" y="1050">  │ └── tunnel-agent@0.4.3 </tspan>
<tspan x="10" y="1066">  ├── rimraf@2.2.8 </tspan>
<tspan x="10" y="1082">  ├── slide@1.1.6 </tspan>
<tspan x="10" y="1098">  ├── url-join@0.0.1 </tspan>
<tspan x="10" y="1114">  └── which@1.0.9</tspan>
</text>
</svg>
